<svg width="260" height="46" viewBox="0 0 260 46" fill="none" xmlns="http://www.w3.org/2000/svg">
<rect width="260" height="46" rx="2" fill="white"/>
<path d="M107.956 29H112.161C114.911 29 116.047 27.6591 116.047 25.9091C116.047 24.0682 114.774 23.0682 113.706 23V22.8864C114.706 22.6136 115.592 21.9545 115.592 20.4545C115.592 18.75 114.456 17.3636 112.024 17.3636H107.956V29ZM109.365 27.75V23.7045H112.229C113.751 23.7045 114.706 24.7273 114.706 25.9091C114.706 26.9318 114.001 27.75 112.161 27.75H109.365ZM109.365 22.4773V18.6136H112.024C113.57 18.6136 114.251 19.4318 114.251 20.4545C114.251 21.6818 113.251 22.4773 111.979 22.4773H109.365ZM121.726 29.1818C124.089 29.1818 125.68 27.3864 125.68 24.6818C125.68 21.9545 124.089 20.1591 121.726 20.1591C119.362 20.1591 117.771 21.9545 117.771 24.6818C117.771 27.3864 119.362 29.1818 121.726 29.1818ZM121.726 27.9773C119.93 27.9773 119.112 26.4318 119.112 24.6818C119.112 22.9318 119.93 21.3636 121.726 21.3636C123.521 21.3636 124.339 22.9318 124.339 24.6818C124.339 26.4318 123.521 27.9773 121.726 27.9773ZM129.068 27.0227V20.2727H127.727V29H129.295L133.477 22.25V29H134.818V20.2727H133.273L129.068 27.0227ZM132.386 17.3636C132.386 17.9545 132.068 18.4773 131.273 18.4773C130.477 18.4773 130.182 17.9545 130.182 17.3636H128.932C128.932 18.5909 129.841 19.4545 131.273 19.4545C132.727 19.4545 133.636 18.5909 133.636 17.3636H132.386ZM136.087 21.5227H138.973V29H140.314V21.5227H143.178V20.2727H136.087V21.5227ZM146.474 27.0227V20.2727H145.134V29H146.702L150.884 22.25V29H152.224V20.2727H150.679L146.474 27.0227Z" fill="black"/>
</svg>
